<svg width="1024" height="1024" viewBox="0 0 1024 1024" xmlns="http://www.w3.org/2000/svg">
  <!-- Background -->
  <rect width="1024" height="1024" fill="#F5EDE6"/>

  <!-- Paw print design -->
  <g fill="#C4A574">
    <!-- Main pad (heart-shaped) -->
    <path d="M512 750
             C512 750 350 600 350 480
             C350 380 420 320 512 400
             C604 320 674 380 674 480
             C674 600 512 750 512 750Z"
          transform="translate(0, 50)"/>

    <!-- Outer left toe -->
    <ellipse cx="310" cy="360" rx="65" ry="80" transform="rotate(-25, 310, 360)"/>

    <!-- Outer right toe -->
    <ellipse cx="714" cy="360" rx="65" ry="80" transform="rotate(25, 714, 360)"/>

    <!-- Inner left toe (more centered) -->
    <ellipse cx="448" cy="265" rx="58" ry="72" transform="rotate(-8, 448, 265)"/>

    <!-- Inner right toe (more centered) -->
    <ellipse cx="576" cy="265" rx="58" ry="72" transform="rotate(8, 576, 265)"/>
  </g>
</svg>
